<svg xmlns="http://www.w3.org/2000/svg" xmlns:xlink="http://www.w3.org/1999/xlink" width="500" zoomAndPan="magnify" viewBox="0 0 375 374.999991" height="500" preserveAspectRatio="xMidYMid meet" version="1.0"><defs><g/></defs><rect x="-37.5" width="450" fill="#ffffff" y="-37.499999" height="449.999989" fill-opacity="1"/><rect x="-37.5" width="450" fill="#000000" y="-37.499999" height="449.999989" fill-opacity="1"/><g fill="#ffffff" fill-opacity="1"><g transform="translate(38.415654, 251.732635)"><g><path d="M 54.859375 -40.296875 C 53.265625 -46.878906 49.234375 -50.171875 42.765625 -50.171875 C 39.367188 -50.171875 36.175781 -49.0625 33.1875 -46.84375 C 30.195312 -44.625 27.820312 -41.691406 26.0625 -38.046875 C 24.3125 -34.398438 23.4375 -30.679688 23.4375 -26.890625 C 23.4375 -22.179688 24.671875 -18.382812 27.140625 -15.5 C 29.609375 -12.625 32.925781 -11.1875 37.09375 -11.1875 C 40.875 -11.1875 44.050781 -12.144531 46.625 -14.0625 C 49.207031 -15.976562 50.910156 -18.609375 51.734375 -21.953125 L 38.578125 -21.953125 L 40.625 -34.625 L 72.625 -34.625 C 71.195312 -25.957031 68.796875 -19.113281 65.421875 -14.09375 C 62.054688 -9.082031 57.78125 -5.132812 52.59375 -2.25 C 47.414062 0.625 41.507812 2.0625 34.875 2.0625 C 26.320312 2.0625 19.453125 -0.347656 14.265625 -5.171875 C 9.085938 -10.003906 6.5 -16.453125 6.5 -24.515625 C 6.5 -31.585938 8.171875 -38.164062 11.515625 -44.25 C 14.859375 -50.332031 19.546875 -55.15625 25.578125 -58.71875 C 31.609375 -62.289062 38.378906 -64.078125 45.890625 -64.078125 C 58.992188 -64.078125 67.410156 -58.289062 71.140625 -46.71875 Z M 54.859375 -40.296875 "/></g></g></g><g fill="#ffffff" fill-opacity="1"><g transform="translate(107.66362, 251.732635)"><g><path d="M 39.5625 -62.015625 C 45.15625 -62.015625 49.632812 -60.695312 53 -58.0625 C 56.375 -55.4375 58.0625 -51.65625 58.0625 -46.71875 C 58.0625 -41.457031 56.5 -36.8125 53.375 -32.78125 C 50.25 -28.75 46.25 -26.296875 41.375 -25.421875 L 56.828125 0 L 36.765625 0 L 25.328125 -23.859375 L 25.171875 -23.859375 L 21.390625 0 L 5.265625 0 L 15.046875 -62.015625 Z M 26.8125 -34.21875 L 29.03125 -34.21875 C 32.8125 -34.21875 35.742188 -35.007812 37.828125 -36.59375 C 39.910156 -38.1875 40.953125 -40.519531 40.953125 -43.59375 C 40.953125 -47.644531 37.609375 -49.671875 30.921875 -49.671875 L 29.28125 -49.671875 Z M 26.8125 -34.21875 "/></g></g></g><g fill="#ffffff" fill-opacity="1"><g transform="translate(163.588352, 251.732635)"><g><path d="M 76.25 -37.015625 C 76.25 -31.035156 74.519531 -24.835938 71.0625 -18.421875 C 67.601562 -12.003906 62.722656 -6.984375 56.421875 -3.359375 C 50.117188 0.253906 43.347656 2.0625 36.109375 2.0625 C 27.390625 2.0625 20.316406 -0.5 14.890625 -5.625 C 9.460938 -10.757812 6.75 -17.519531 6.75 -25.90625 C 6.75 -32.8125 8.570312 -39.1875 12.21875 -45.03125 C 15.863281 -50.875 20.820312 -55.507812 27.09375 -58.9375 C 33.375 -62.363281 39.859375 -64.078125 46.546875 -64.078125 C 51.867188 -64.078125 56.847656 -62.921875 61.484375 -60.609375 C 66.117188 -58.304688 69.738281 -55.113281 72.34375 -51.03125 C 74.945312 -46.945312 76.25 -42.273438 76.25 -37.015625 Z M 38.578125 -13.578125 C 42.304688 -13.578125 45.742188 -14.601562 48.890625 -16.65625 C 52.046875 -18.707031 54.554688 -21.363281 56.421875 -24.625 C 58.285156 -27.894531 59.21875 -31.117188 59.21875 -34.296875 C 59.21875 -38.242188 57.722656 -41.585938 54.734375 -44.328125 C 51.742188 -47.078125 48.164062 -48.453125 44 -48.453125 C 40.769531 -48.453125 37.5625 -47.570312 34.375 -45.8125 C 31.195312 -44.0625 28.632812 -41.703125 26.6875 -38.734375 C 24.738281 -35.773438 23.765625 -32.488281 23.765625 -28.875 C 23.765625 -24.425781 25.148438 -20.765625 27.921875 -17.890625 C 30.691406 -15.015625 34.242188 -13.578125 38.578125 -13.578125 Z M 38.578125 -13.578125 "/></g></g></g><g fill="#ffffff" fill-opacity="1"><g transform="translate(236.537223, 251.732635)"><g><path d="M 25.328125 -62.015625 L 29.78125 -21.953125 L 29.9375 -21.953125 L 49.265625 -62.015625 L 62.09375 -62.015625 L 67.9375 -21.953125 L 68.109375 -21.953125 L 86.109375 -62.015625 L 102.890625 -62.015625 L 73.28125 0 L 56.828125 0 L 51.65625 -35.9375 L 51.484375 -35.9375 L 33.640625 0 L 17.265625 0 L 8.546875 -62.015625 Z M 25.328125 -62.015625 "/></g></g></g><g fill="#1ed760" fill-opacity="1"><g transform="translate(42.56102, 273.420816)"><g><path d="M 4.546875 0.09375 C 3.773438 0.09375 3.035156 -0.03125 2.328125 -0.28125 C 1.628906 -0.53125 1.085938 -0.859375 0.703125 -1.265625 L 1.125 -2.109375 C 1.5 -1.734375 2 -1.425781 2.625 -1.1875 C 3.25 -0.957031 3.890625 -0.84375 4.546875 -0.84375 C 5.472656 -0.84375 6.164062 -1.007812 6.625 -1.34375 C 7.09375 -1.6875 7.328125 -2.132812 7.328125 -2.6875 C 7.328125 -3.09375 7.203125 -3.421875 6.953125 -3.671875 C 6.703125 -3.921875 6.394531 -4.109375 6.03125 -4.234375 C 5.664062 -4.367188 5.15625 -4.519531 4.5 -4.6875 C 3.71875 -4.882812 3.09375 -5.070312 2.625 -5.25 C 2.164062 -5.4375 1.769531 -5.71875 1.4375 -6.09375 C 1.113281 -6.46875 0.953125 -6.972656 0.953125 -7.609375 C 0.953125 -8.140625 1.085938 -8.617188 1.359375 -9.046875 C 1.640625 -9.472656 2.066406 -9.8125 2.640625 -10.0625 C 3.210938 -10.320312 3.921875 -10.453125 4.765625 -10.453125 C 5.359375 -10.453125 5.9375 -10.367188 6.5 -10.203125 C 7.070312 -10.046875 7.566406 -9.828125 7.984375 -9.546875 L 7.609375 -8.671875 C 7.179688 -8.953125 6.71875 -9.164062 6.21875 -9.3125 C 5.726562 -9.457031 5.242188 -9.53125 4.765625 -9.53125 C 3.859375 -9.53125 3.175781 -9.351562 2.71875 -9 C 2.257812 -8.644531 2.03125 -8.191406 2.03125 -7.640625 C 2.03125 -7.222656 2.15625 -6.890625 2.40625 -6.640625 C 2.65625 -6.390625 2.96875 -6.195312 3.34375 -6.0625 C 3.726562 -5.925781 4.242188 -5.78125 4.890625 -5.625 C 5.648438 -5.4375 6.265625 -5.25 6.734375 -5.0625 C 7.203125 -4.882812 7.597656 -4.609375 7.921875 -4.234375 C 8.242188 -3.867188 8.40625 -3.367188 8.40625 -2.734375 C 8.40625 -2.210938 8.265625 -1.738281 7.984375 -1.3125 C 7.703125 -0.882812 7.269531 -0.539062 6.6875 -0.28125 C 6.113281 -0.03125 5.398438 0.09375 4.546875 0.09375 Z M 4.546875 0.09375 "/></g></g></g><g fill="#1ed760" fill-opacity="1"><g transform="translate(51.668773, 273.420816)"><g><path d="M 6.21875 0.09375 C 5.195312 0.09375 4.265625 -0.132812 3.421875 -0.59375 C 2.585938 -1.050781 1.9375 -1.679688 1.46875 -2.484375 C 1 -3.285156 0.765625 -4.1875 0.765625 -5.1875 C 0.765625 -6.1875 1 -7.082031 1.46875 -7.875 C 1.9375 -8.675781 2.585938 -9.304688 3.421875 -9.765625 C 4.265625 -10.222656 5.195312 -10.453125 6.21875 -10.453125 C 7.25 -10.453125 8.175781 -10.222656 9 -9.765625 C 9.820312 -9.316406 10.46875 -8.691406 10.9375 -7.890625 C 11.414062 -7.085938 11.65625 -6.1875 11.65625 -5.1875 C 11.65625 -4.1875 11.414062 -3.285156 10.9375 -2.484375 C 10.46875 -1.679688 9.820312 -1.050781 9 -0.59375 C 8.175781 -0.132812 7.25 0.09375 6.21875 0.09375 Z M 6.21875 -0.890625 C 7.039062 -0.890625 7.78125 -1.070312 8.4375 -1.4375 C 9.101562 -1.8125 9.625 -2.328125 10 -2.984375 C 10.375 -3.640625 10.5625 -4.375 10.5625 -5.1875 C 10.5625 -6 10.375 -6.734375 10 -7.390625 C 9.625 -8.046875 9.101562 -8.554688 8.4375 -8.921875 C 7.78125 -9.296875 7.039062 -9.484375 6.21875 -9.484375 C 5.394531 -9.484375 4.648438 -9.296875 3.984375 -8.921875 C 3.316406 -8.554688 2.789062 -8.046875 2.40625 -7.390625 C 2.03125 -6.734375 1.84375 -6 1.84375 -5.1875 C 1.84375 -4.375 2.03125 -3.640625 2.40625 -2.984375 C 2.789062 -2.328125 3.316406 -1.8125 3.984375 -1.4375 C 4.648438 -1.070312 5.394531 -0.890625 6.21875 -0.890625 Z M 6.21875 -0.890625 "/></g></g></g><g fill="#1ed760" fill-opacity="1"><g transform="translate(64.09382, 273.420816)"><g><path d="M 6.1875 0.09375 C 5.164062 0.09375 4.238281 -0.132812 3.40625 -0.59375 C 2.582031 -1.050781 1.9375 -1.679688 1.46875 -2.484375 C 1 -3.285156 0.765625 -4.1875 0.765625 -5.1875 C 0.765625 -6.1875 1 -7.085938 1.46875 -7.890625 C 1.9375 -8.691406 2.585938 -9.316406 3.421875 -9.765625 C 4.253906 -10.222656 5.179688 -10.453125 6.203125 -10.453125 C 6.972656 -10.453125 7.679688 -10.320312 8.328125 -10.0625 C 8.984375 -9.8125 9.539062 -9.441406 10 -8.953125 L 9.296875 -8.25 C 8.492188 -9.070312 7.472656 -9.484375 6.234375 -9.484375 C 5.410156 -9.484375 4.660156 -9.296875 3.984375 -8.921875 C 3.316406 -8.546875 2.789062 -8.03125 2.40625 -7.375 C 2.03125 -6.726562 1.84375 -6 1.84375 -5.1875 C 1.84375 -4.375 2.03125 -3.640625 2.40625 -2.984375 C 2.789062 -2.335938 3.316406 -1.828125 3.984375 -1.453125 C 4.660156 -1.078125 5.410156 -0.890625 6.234375 -0.890625 C 7.484375 -0.890625 8.503906 -1.304688 9.296875 -2.140625 L 10 -1.4375 C 9.539062 -0.945312 8.984375 -0.566406 8.328125 -0.296875 C 7.671875 -0.0351562 6.957031 0.09375 6.1875 0.09375 Z M 6.1875 0.09375 "/></g></g></g><g fill="#1ed760" fill-opacity="1"><g transform="translate(74.741746, 273.420816)"><g><path d="M 1.6875 -10.375 L 2.78125 -10.375 L 2.78125 0 L 1.6875 0 Z M 1.6875 -10.375 "/></g></g></g><g fill="#1ed760" fill-opacity="1"><g transform="translate(79.214168, 273.420816)"><g><path d="M 8.1875 -2.765625 L 2.421875 -2.765625 L 1.171875 0 L 0.03125 0 L 4.765625 -10.375 L 5.84375 -10.375 L 10.59375 0 L 9.4375 0 Z M 7.796875 -3.65625 L 5.296875 -9.234375 L 2.8125 -3.65625 Z M 7.796875 -3.65625 "/></g></g></g><g fill="#1ed760" fill-opacity="1"><g transform="translate(89.832475, 273.420816)"><g><path d="M 1.6875 -10.375 L 2.78125 -10.375 L 2.78125 -0.953125 L 8.59375 -0.953125 L 8.59375 0 L 1.6875 0 Z M 1.6875 -10.375 "/></g></g></g><g fill="#1ed760" fill-opacity="1"><g transform="translate(98.555185, 273.420816)"><g/></g></g><g fill="#1ed760" fill-opacity="1"><g transform="translate(102.435234, 273.420816)"><g><path d="M 10.3125 -10.375 L 5.71875 0 L 4.640625 0 L 0.046875 -10.375 L 1.234375 -10.375 L 5.203125 -1.359375 L 9.203125 -10.375 Z M 10.3125 -10.375 "/></g></g></g><g fill="#1ed760" fill-opacity="1"><g transform="translate(112.772159, 273.420816)"><g><path d="M 1.6875 -10.375 L 2.78125 -10.375 L 2.78125 0 L 1.6875 0 Z M 1.6875 -10.375 "/></g></g></g><g fill="#1ed760" fill-opacity="1"><g transform="translate(117.244581, 273.420816)"><g><path d="M 4.546875 0.09375 C 3.773438 0.09375 3.035156 -0.03125 2.328125 -0.28125 C 1.628906 -0.53125 1.085938 -0.859375 0.703125 -1.265625 L 1.125 -2.109375 C 1.5 -1.734375 2 -1.425781 2.625 -1.1875 C 3.25 -0.957031 3.890625 -0.84375 4.546875 -0.84375 C 5.472656 -0.84375 6.164062 -1.007812 6.625 -1.34375 C 7.09375 -1.6875 7.328125 -2.132812 7.328125 -2.6875 C 7.328125 -3.09375 7.203125 -3.421875 6.953125 -3.671875 C 6.703125 -3.921875 6.394531 -4.109375 6.03125 -4.234375 C 5.664062 -4.367188 5.15625 -4.519531 4.5 -4.6875 C 3.71875 -4.882812 3.09375 -5.070312 2.625 -5.25 C 2.164062 -5.4375 1.769531 -5.71875 1.4375 -6.09375 C 1.113281 -6.46875 0.953125 -6.972656 0.953125 -7.609375 C 0.953125 -8.140625 1.085938 -8.617188 1.359375 -9.046875 C 1.640625 -9.472656 2.066406 -9.8125 2.640625 -10.0625 C 3.210938 -10.320312 3.921875 -10.453125 4.765625 -10.453125 C 5.359375 -10.453125 5.9375 -10.367188 6.5 -10.203125 C 7.070312 -10.046875 7.566406 -9.828125 7.984375 -9.546875 L 7.609375 -8.671875 C 7.179688 -8.953125 6.71875 -9.164062 6.21875 -9.3125 C 5.726562 -9.457031 5.242188 -9.53125 4.765625 -9.53125 C 3.859375 -9.53125 3.175781 -9.351562 2.71875 -9 C 2.257812 -8.644531 2.03125 -8.191406 2.03125 -7.640625 C 2.03125 -7.222656 2.15625 -6.890625 2.40625 -6.640625 C 2.65625 -6.390625 2.96875 -6.195312 3.34375 -6.0625 C 3.726562 -5.925781 4.242188 -5.78125 4.890625 -5.625 C 5.648438 -5.4375 6.265625 -5.25 6.734375 -5.0625 C 7.203125 -4.882812 7.597656 -4.609375 7.921875 -4.234375 C 8.242188 -3.867188 8.40625 -3.367188 8.40625 -2.734375 C 8.40625 -2.210938 8.265625 -1.738281 7.984375 -1.3125 C 7.703125 -0.882812 7.269531 -0.539062 6.6875 -0.28125 C 6.113281 -0.03125 5.398438 0.09375 4.546875 0.09375 Z M 4.546875 0.09375 "/></g></g></g><g fill="#1ed760" fill-opacity="1"><g transform="translate(126.352335, 273.420816)"><g><path d="M 1.6875 -10.375 L 2.78125 -10.375 L 2.78125 0 L 1.6875 0 Z M 1.6875 -10.375 "/></g></g></g><g fill="#1ed760" fill-opacity="1"><g transform="translate(130.824758, 273.420816)"><g><path d="M 8.21875 -5.34375 C 8.90625 -5.195312 9.429688 -4.90625 9.796875 -4.46875 C 10.171875 -4.03125 10.359375 -3.460938 10.359375 -2.765625 C 10.359375 -1.878906 10.03125 -1.195312 9.375 -0.71875 C 8.71875 -0.238281 7.742188 0 6.453125 0 L 1.6875 0 L 1.6875 -10.375 L 6.15625 -10.375 C 7.3125 -10.375 8.207031 -10.140625 8.84375 -9.671875 C 9.488281 -9.203125 9.8125 -8.546875 9.8125 -7.703125 C 9.8125 -7.128906 9.671875 -6.640625 9.390625 -6.234375 C 9.109375 -5.835938 8.71875 -5.539062 8.21875 -5.34375 Z M 2.78125 -9.46875 L 2.78125 -5.703125 L 6.09375 -5.703125 C 6.925781 -5.703125 7.566406 -5.863281 8.015625 -6.1875 C 8.472656 -6.507812 8.703125 -6.972656 8.703125 -7.578125 C 8.703125 -8.191406 8.472656 -8.660156 8.015625 -8.984375 C 7.566406 -9.304688 6.925781 -9.46875 6.09375 -9.46875 Z M 6.4375 -0.90625 C 7.363281 -0.90625 8.0625 -1.0625 8.53125 -1.375 C 9.007812 -1.6875 9.25 -2.179688 9.25 -2.859375 C 9.25 -4.148438 8.3125 -4.796875 6.4375 -4.796875 L 2.78125 -4.796875 L 2.78125 -0.90625 Z M 6.4375 -0.90625 "/></g></g></g><g fill="#1ed760" fill-opacity="1"><g transform="translate(141.991005, 273.420816)"><g><path d="M 1.6875 -10.375 L 2.78125 -10.375 L 2.78125 0 L 1.6875 0 Z M 1.6875 -10.375 "/></g></g></g><g fill="#1ed760" fill-opacity="1"><g transform="translate(146.463428, 273.420816)"><g><path d="M 1.6875 -10.375 L 2.78125 -10.375 L 2.78125 -0.953125 L 8.59375 -0.953125 L 8.59375 0 L 1.6875 0 Z M 1.6875 -10.375 "/></g></g></g><g fill="#1ed760" fill-opacity="1"><g transform="translate(155.186138, 273.420816)"><g><path d="M 1.6875 -10.375 L 2.78125 -10.375 L 2.78125 0 L 1.6875 0 Z M 1.6875 -10.375 "/></g></g></g><g fill="#1ed760" fill-opacity="1"><g transform="translate(159.658561, 273.420816)"><g><path d="M 3.703125 -9.421875 L 0.0625 -9.421875 L 0.0625 -10.375 L 8.4375 -10.375 L 8.4375 -9.421875 L 4.796875 -9.421875 L 4.796875 0 L 3.703125 0 Z M 3.703125 -9.421875 "/></g></g></g><g fill="#1ed760" fill-opacity="1"><g transform="translate(168.159127, 273.420816)"><g><path d="M 5.25 -3.578125 L 5.25 0 L 4.15625 0 L 4.15625 -3.578125 L 0.015625 -10.375 L 1.1875 -10.375 L 4.734375 -4.546875 L 8.296875 -10.375 L 9.390625 -10.375 Z M 5.25 -3.578125 "/></g></g></g><g fill="#1ed760" fill-opacity="1"><g transform="translate(177.563067, 273.420816)"><g><path d="M 1.578125 -1.546875 C 1.804688 -1.546875 1.992188 -1.46875 2.140625 -1.3125 C 2.296875 -1.15625 2.375 -0.960938 2.375 -0.734375 C 2.375 -0.617188 2.351562 -0.488281 2.3125 -0.34375 C 2.28125 -0.207031 2.226562 -0.0507812 2.15625 0.125 L 1.546875 2.15625 L 0.828125 2.15625 L 1.328125 0.015625 C 1.171875 -0.0351562 1.039062 -0.125 0.9375 -0.25 C 0.84375 -0.382812 0.796875 -0.546875 0.796875 -0.734375 C 0.796875 -0.960938 0.867188 -1.15625 1.015625 -1.3125 C 1.171875 -1.46875 1.359375 -1.546875 1.578125 -1.546875 Z M 1.578125 -1.546875 "/></g></g></g><g fill="#1ed760" fill-opacity="1"><g transform="translate(180.702648, 273.420816)"><g/></g></g><g fill="#1ed760" fill-opacity="1"><g transform="translate(184.582697, 273.420816)"><g><path d="M 8.765625 0 L 6.40625 -3.328125 C 6.132812 -3.296875 5.851562 -3.28125 5.5625 -3.28125 L 2.78125 -3.28125 L 2.78125 0 L 1.6875 0 L 1.6875 -10.375 L 5.5625 -10.375 C 6.882812 -10.375 7.921875 -10.054688 8.671875 -9.421875 C 9.429688 -8.785156 9.8125 -7.914062 9.8125 -6.8125 C 9.8125 -6 9.601562 -5.3125 9.1875 -4.75 C 8.78125 -4.195312 8.195312 -3.800781 7.4375 -3.5625 L 9.96875 0 Z M 5.546875 -4.21875 C 6.566406 -4.21875 7.347656 -4.441406 7.890625 -4.890625 C 8.429688 -5.347656 8.703125 -5.988281 8.703125 -6.8125 C 8.703125 -7.65625 8.429688 -8.300781 7.890625 -8.75 C 7.347656 -9.195312 6.566406 -9.421875 5.546875 -9.421875 L 2.78125 -9.421875 L 2.78125 -4.21875 Z M 5.546875 -4.21875 "/></g></g></g><g fill="#1ed760" fill-opacity="1"><g transform="translate(195.28986, 273.420816)"><g><path d="M 9.015625 -0.953125 L 9.015625 0 L 1.6875 0 L 1.6875 -10.375 L 8.796875 -10.375 L 8.796875 -9.421875 L 2.78125 -9.421875 L 2.78125 -5.734375 L 8.140625 -5.734375 L 8.140625 -4.796875 L 2.78125 -4.796875 L 2.78125 -0.953125 Z M 9.015625 -0.953125 "/></g></g></g><g fill="#1ed760" fill-opacity="1"><g transform="translate(205.197318, 273.420816)"><g><path d="M 8.1875 -2.765625 L 2.421875 -2.765625 L 1.171875 0 L 0.03125 0 L 4.765625 -10.375 L 5.84375 -10.375 L 10.59375 0 L 9.4375 0 Z M 7.796875 -3.65625 L 5.296875 -9.234375 L 2.8125 -3.65625 Z M 7.796875 -3.65625 "/></g></g></g><g fill="#1ed760" fill-opacity="1"><g transform="translate(215.815615, 273.420816)"><g><path d="M 1.6875 -10.375 L 2.78125 -10.375 L 2.78125 -0.953125 L 8.59375 -0.953125 L 8.59375 0 L 1.6875 0 Z M 1.6875 -10.375 "/></g></g></g><g fill="#1ed760" fill-opacity="1"><g transform="translate(224.538315, 273.420816)"><g><path d="M 0.890625 -4.46875 L 4.765625 -4.46875 L 4.765625 -3.5625 L 0.890625 -3.5625 Z M 0.890625 -4.46875 "/></g></g></g><g fill="#1ed760" fill-opacity="1"><g transform="translate(230.195496, 273.420816)"><g><path d="M 1.6875 -10.375 L 2.78125 -10.375 L 2.78125 -0.953125 L 8.59375 -0.953125 L 8.59375 0 L 1.6875 0 Z M 1.6875 -10.375 "/></g></g></g><g fill="#1ed760" fill-opacity="1"><g transform="translate(238.918196, 273.420816)"><g><path d="M 1.6875 -10.375 L 2.78125 -10.375 L 2.78125 0 L 1.6875 0 Z M 1.6875 -10.375 "/></g></g></g><g fill="#1ed760" fill-opacity="1"><g transform="translate(243.390629, 273.420816)"><g><path d="M 2.78125 -9.421875 L 2.78125 -5.34375 L 8.140625 -5.34375 L 8.140625 -4.40625 L 2.78125 -4.40625 L 2.78125 0 L 1.6875 0 L 1.6875 -10.375 L 8.796875 -10.375 L 8.796875 -9.421875 Z M 2.78125 -9.421875 "/></g></g></g><g fill="#1ed760" fill-opacity="1"><g transform="translate(252.76496, 273.420816)"><g><path d="M 9.015625 -0.953125 L 9.015625 0 L 1.6875 0 L 1.6875 -10.375 L 8.796875 -10.375 L 8.796875 -9.421875 L 2.78125 -9.421875 L 2.78125 -5.734375 L 8.140625 -5.734375 L 8.140625 -4.796875 L 2.78125 -4.796875 L 2.78125 -0.953125 Z M 9.015625 -0.953125 "/></g></g></g><g fill="#1ed760" fill-opacity="1"><g transform="translate(262.672409, 273.420816)"><g/></g></g><g fill="#1ed760" fill-opacity="1"><g transform="translate(266.552467, 273.420816)"><g><path d="M 12.125 0.875 C 11.8125 1.257812 11.441406 1.550781 11.015625 1.75 C 10.585938 1.957031 10.117188 2.0625 9.609375 2.0625 C 8.992188 2.0625 8.410156 1.910156 7.859375 1.609375 C 7.316406 1.304688 6.707031 0.800781 6.03125 0.09375 C 5.03125 0.0625 4.128906 -0.179688 3.328125 -0.640625 C 2.535156 -1.109375 1.910156 -1.738281 1.453125 -2.53125 C 0.992188 -3.320312 0.765625 -4.207031 0.765625 -5.1875 C 0.765625 -6.1875 1 -7.082031 1.46875 -7.875 C 1.9375 -8.675781 2.585938 -9.304688 3.421875 -9.765625 C 4.265625 -10.222656 5.195312 -10.453125 6.21875 -10.453125 C 7.25 -10.453125 8.175781 -10.222656 9 -9.765625 C 9.820312 -9.316406 10.46875 -8.691406 10.9375 -7.890625 C 11.414062 -7.085938 11.65625 -6.1875 11.65625 -5.1875 C 11.65625 -4.3125 11.472656 -3.507812 11.109375 -2.78125 C 10.753906 -2.0625 10.253906 -1.457031 9.609375 -0.96875 C 8.960938 -0.488281 8.21875 -0.171875 7.375 -0.015625 C 8.132812 0.785156 8.882812 1.1875 9.625 1.1875 C 10.394531 1.1875 11.050781 0.867188 11.59375 0.234375 Z M 1.84375 -5.1875 C 1.84375 -4.375 2.03125 -3.640625 2.40625 -2.984375 C 2.789062 -2.335938 3.316406 -1.828125 3.984375 -1.453125 C 4.648438 -1.078125 5.394531 -0.890625 6.21875 -0.890625 C 7.039062 -0.890625 7.78125 -1.078125 8.4375 -1.453125 C 9.101562 -1.828125 9.625 -2.335938 10 -2.984375 C 10.375 -3.640625 10.5625 -4.375 10.5625 -5.1875 C 10.5625 -6 10.375 -6.726562 10 -7.375 C 9.625 -8.03125 9.101562 -8.546875 8.4375 -8.921875 C 7.78125 -9.296875 7.039062 -9.484375 6.21875 -9.484375 C 5.394531 -9.484375 4.648438 -9.296875 3.984375 -8.921875 C 3.316406 -8.546875 2.789062 -8.03125 2.40625 -7.375 C 2.03125 -6.726562 1.84375 -6 1.84375 -5.1875 Z M 1.84375 -5.1875 "/></g></g></g><g fill="#1ed760" fill-opacity="1"><g transform="translate(278.977514, 273.420816)"><g><path d="M 5.859375 0.09375 C 4.515625 0.09375 3.46875 -0.289062 2.71875 -1.0625 C 1.96875 -1.832031 1.59375 -2.953125 1.59375 -4.421875 L 1.59375 -10.375 L 2.703125 -10.375 L 2.703125 -4.46875 C 2.703125 -3.269531 2.972656 -2.375 3.515625 -1.78125 C 4.054688 -1.1875 4.835938 -0.890625 5.859375 -0.890625 C 6.898438 -0.890625 7.691406 -1.1875 8.234375 -1.78125 C 8.773438 -2.375 9.046875 -3.269531 9.046875 -4.46875 L 9.046875 -10.375 L 10.109375 -10.375 L 10.109375 -4.421875 C 10.109375 -2.953125 9.734375 -1.832031 8.984375 -1.0625 C 8.242188 -0.289062 7.203125 0.09375 5.859375 0.09375 Z M 5.859375 0.09375 "/></g></g></g><g fill="#1ed760" fill-opacity="1"><g transform="translate(290.706517, 273.420816)"><g><path d="M 8.1875 -2.765625 L 2.421875 -2.765625 L 1.171875 0 L 0.03125 0 L 4.765625 -10.375 L 5.84375 -10.375 L 10.59375 0 L 9.4375 0 Z M 7.796875 -3.65625 L 5.296875 -9.234375 L 2.8125 -3.65625 Z M 7.796875 -3.65625 "/></g></g></g><g fill="#1ed760" fill-opacity="1"><g transform="translate(301.324833, 273.420816)"><g><path d="M 1.6875 -10.375 L 2.78125 -10.375 L 2.78125 -0.953125 L 8.59375 -0.953125 L 8.59375 0 L 1.6875 0 Z M 1.6875 -10.375 "/></g></g></g><g fill="#1ed760" fill-opacity="1"><g transform="translate(310.047534, 273.420816)"><g><path d="M 1.6875 -10.375 L 2.78125 -10.375 L 2.78125 0 L 1.6875 0 Z M 1.6875 -10.375 "/></g></g></g><g fill="#1ed760" fill-opacity="1"><g transform="translate(314.519966, 273.420816)"><g><path d="M 3.703125 -9.421875 L 0.0625 -9.421875 L 0.0625 -10.375 L 8.4375 -10.375 L 8.4375 -9.421875 L 4.796875 -9.421875 L 4.796875 0 L 3.703125 0 Z M 3.703125 -9.421875 "/></g></g></g><g fill="#1ed760" fill-opacity="1"><g transform="translate(323.020541, 273.420816)"><g><path d="M 5.25 -3.578125 L 5.25 0 L 4.15625 0 L 4.15625 -3.578125 L 0.015625 -10.375 L 1.1875 -10.375 L 4.734375 -4.546875 L 8.296875 -10.375 L 9.390625 -10.375 Z M 5.25 -3.578125 "/></g></g></g><path stroke-linecap="butt" transform="matrix(0.75, 0, 0, 0.75, 38.459574, 88.82007)" fill="none" stroke-linejoin="miter" d="M 74.850782 31.385742 L 71.704948 51.557618 L 42.897655 51.557618 L 40.465363 66.870119 L 66.60599 66.870119 L 63.428906 87.041995 L 37.293488 87.041995 L 31.595571 123.000331 L 7.772652 123.000331 L 22.25182 31.385742 Z M 141.069536 31.385742 L 161.126829 123.000331 L 135.730994 123.000331 L 132.345577 107.068038 L 99.533075 107.068038 L 90.663283 123.000331 L 65.38724 123.000331 L 115.079951 31.385742 Z M 108.996617 88.854496 L 128.814327 88.854496 L 123.715368 59.687827 L 123.475785 59.687827 Z M 214.465374 28.95345 C 224.272667 28.95345 233.470584 31.463867 242.053918 36.489909 L 229.652875 54.943035 C 225.361208 50.885743 220.428916 48.859701 214.850791 48.859701 C 211.923707 48.859701 209.262249 49.693035 206.871624 51.349285 C 204.496624 53.010743 203.309124 55.062827 203.309124 57.495119 C 203.309124 59.27116 204.158082 60.83366 205.861207 62.182619 C 207.559124 63.526369 210.678916 64.838869 215.204958 66.125327 C 221.356 67.984703 225.809125 69.786786 228.553917 71.526369 C 231.32475 73.265953 233.470584 75.411786 234.996626 77.96387 C 236.538292 80.515953 237.309126 83.698245 237.309126 87.515954 C 237.309126 93.015954 235.892459 98.849288 233.064334 105.021163 C 230.236209 111.172205 225.600792 116.078456 219.152875 119.734706 C 212.704958 123.375331 205.06954 125.276373 196.246623 125.432623 C 184.913289 125.432623 174.710163 121.953456 165.632038 114.989914 L 178.861205 95.765954 C 185.189331 102.09408 191.720581 105.260747 198.44454 105.260747 C 202.16329 105.260747 205.298707 104.291997 207.845582 102.349288 C 210.397666 100.390955 211.673707 97.922205 211.673707 94.932621 C 211.673707 91.036787 207.788291 88.041996 200.017457 85.943037 C 190.621623 83.354495 184.538289 80.583662 181.767456 77.635745 C 179.022664 74.672203 177.647664 70.713869 177.647664 65.771161 C 177.647664 55.406577 181.184122 46.682618 188.267456 39.604492 C 195.366415 32.500325 204.10079 28.95345 214.465374 28.95345 Z M 313.882048 31.385742 L 310.704964 51.557618 L 291.033088 51.557618 L 279.731004 123.000331 L 255.908085 123.000331 L 267.210169 51.557618 L 247.543501 51.557618 L 250.689335 31.385742 Z M 313.882048 31.385742 " stroke="#ffffff" stroke-width="1.89875" stroke-opacity="1" stroke-miterlimit="4"/><path stroke-linecap="butt" transform="matrix(0.75, 0, 0, 0.75, 263.711531, 88.800793)" fill="none" stroke-linejoin="miter" d="M 63.327338 27.541652 C 72.327338 27.541652 79.707547 30.057277 85.473172 35.093736 C 91.244006 40.124986 94.124215 46.536445 94.124215 54.328112 C 94.124215 60.411446 92.759631 66.218738 90.025256 71.74478 C 87.306506 77.255197 81.97838 83.223948 74.030463 89.645823 L 57.707546 102.786449 L 87.796089 102.786449 L 84.613797 122.999992 L 10.827334 122.999992 L 55.030462 81.973948 C 58.936712 78.385406 62.228379 74.322905 64.905463 69.786447 C 67.577338 65.24478 68.91588 61.145821 68.91588 57.479154 C 68.91588 54.723946 68.124213 52.411446 66.535671 50.55207 C 64.952338 48.687487 62.863796 47.755195 60.264837 47.755195 C 56.697129 47.755195 53.796087 49.11457 51.556503 51.828112 C 49.332545 54.541654 48.22317 58.218738 48.22317 62.859363 L 21.915877 62.859363 C 24.09296 51.979154 28.900252 43.374987 36.332544 37.05207 C 43.764836 30.713528 52.764837 27.541652 63.327338 27.541652 Z M 63.327338 27.541652 " stroke="#000000" stroke-width="16.592115" stroke-opacity="1" stroke-miterlimit="4"/><g fill="#1ed760" fill-opacity="1"><g transform="translate(268.820906, 181.050787)"><g><path d="M 42.375 -71.59375 C 49.132812 -71.59375 54.675781 -69.707031 59 -65.9375 C 63.320312 -62.164062 65.484375 -57.359375 65.484375 -51.515625 C 65.484375 -46.941406 64.460938 -42.582031 62.421875 -38.4375 C 60.378906 -34.300781 56.375 -29.832031 50.40625 -25.03125 L 38.171875 -15.15625 L 60.734375 -15.15625 L 58.359375 0 L 3.015625 0 L 36.171875 -30.78125 C 39.085938 -33.457031 41.550781 -36.5 43.5625 -39.90625 C 45.570312 -43.320312 46.578125 -46.398438 46.578125 -49.140625 C 46.578125 -51.203125 45.984375 -52.929688 44.796875 -54.328125 C 43.609375 -55.734375 42.039062 -56.4375 40.09375 -56.4375 C 37.414062 -56.4375 35.238281 -55.414062 33.5625 -53.375 C 31.882812 -51.34375 31.046875 -48.585938 31.046875 -45.109375 L 11.328125 -45.109375 C 12.972656 -53.273438 16.578125 -59.726562 22.140625 -64.46875 C 27.710938 -69.21875 34.457031 -71.59375 42.375 -71.59375 Z M 42.375 -71.59375 "/></g></g></g></svg>